[img]http://img233.imageshack.us/img233/4971/totalrecallo.jpg[/img]

[b][size=200][color=black]PLOT[/color][/size][/b]

[code]A factory worker, Douglas Quaid, begins to suspect that he is a spy 
after visiting Rekall - a company that provides its clients with implanted fake 
memories of a life they would like to have led - goes wrong and he finds himself 
on the run.[/code]

[b][size=200][color=black]IMDB[/color][/size][/b]

[code]http://www.imdb.com/title/tt1386703/[/code]

[b][size=200][color=black]MOVIE INFO[/color][/size][/b]

[code]Total Recall [2012] DVDRip x264 AAC-V3nom

Format                                   : MPEG-4
Format profile                           : Base Media / Version 2
Codec ID                                 : mp42
File size                                : 347 MiB
Duration                                 : 1h 53mn
Overall bit rate mode                    : Variable
Overall bit rate                         : 427 Kbps
Encoded date                             : UTC 2012-11-21 14:56:10
Tagged date                              : UTC 2012-11-21 15:37:06

Video
ID                                       : 1
Format                                   : AVC
Format/Info                              : Advanced Video Codec
Format profile                           : Main@L3.0
Format settings, CABAC                   : Yes
Format settings, ReFrames                : 4 frames
Codec ID                                 : avc1
Codec ID/Info                            : Advanced Video Coding
Duration                                 : 1h 53mn
Bit rate mode                            : Variable
Bit rate                                 : 299 Kbps
Width                                    : 720 pixels
Height                                   : 304 pixels
Display aspect ratio                     : 2.35:1
Frame rate mode                          : Variable
Frame rate                               : 25.000 fps
Minimum frame rate                       : 12.500 fps
Maximum frame rate                       : 25.000 fps
Color space                              : YUV
Chroma subsampling                       : 4:2:0
Bit depth                                : 8 bits
Scan type                                : Progressive
Bits/(Pixel*Frame)                       : 0.055
Stream size                              : 239 MiB (69%)
Writing library                          : x264

Audio
ID                                       : 2
Format                                   : AAC
Format/Info                              : Advanced Audio Codec
Format profile                           : LC
Codec ID                                 : 40
Duration                                 : 1h 53mn
Bit rate mode                            : Variable
Bit rate                                 : 128 Kbps
Maximum bit rate                         : 255 Kbps
Channel(s)                               : 2 channels
Channel positions                        : Front: L R
Sampling rate                            : 48.0 KHz
Compression mode                         : Lossy
Delay relative to video                  : 80ms
Stream size                              : 104 MiB (30%)
Encoded date                             : UTC 2012-11-21 14:56:10
Tagged date                              : UTC 2012-11-21 15:37:01[/code]

[b][size=200][color=black]SOURCE[/color][/size][/b]

[code]Total Recall 2012 DVDRip XviD Lum1x (Thanks)[/code]

[b][size=200][color=black]SCREENSHOTS[/color][/size][/b]

[img]http://img515.imageshack.us/img515/3240/totalrecall2012dvdripx2.jpg[/img]

[img]http://kastatic.com/i2/users/133df62bbf28e62494bb17fe11078f1a.gif[/img][img]http://kastatic.com/i2/users/133df62bbf28e62494bb17fe11078f1a.gif[/img]